<svg xmlns="http://www.w3.org/2000/svg" fill="none" viewBox="0 0 23 24" id="LoaderDark" style="width:100%;height:100%;filter:none"><path fill="#fff" fill-opacity="0.3" fill-rule="evenodd" d="M5.247 17.04c-.597 0-1.104.21-1.52.63-.418.42-.627.93-.627 1.53s.209 1.11.626 1.53c.418.42.924.63 1.52.63.587 0 1.091-.21 1.513-.63.423-.42.634-.93.634-1.53s-.211-1.11-.634-1.53a2.072 2.072 0 0 0-1.512-.63ZM4.77 12.48a2.32 2.32 0 0 0-.7-1.695 2.29 2.29 0 0 0-1.685-.705 2.29 2.29 0 0 0-1.685.705c-.467.47-.7 1.035-.7 1.695 0 .66.233 1.224.7 1.695.468.47 1.029.705 1.685.705.656 0 1.217-.235 1.684-.705.467-.47.7-1.035.7-1.695Z" clip-rule="evenodd"/><path fill="#fff" fill-opacity="0.2" fill-rule="evenodd" d="M18.601 6.96c.328 0 .61-.118.842-.352a1.16 1.16 0 0 0 .35-.848c0-.33-.116-.613-.35-.847a1.144 1.144 0 0 0-.842-.353c-.328 0-.608.118-.842.353a1.16 1.16 0 0 0-.35.847c0 .33.117.612.35.848.233.235.514.352.842.352Z" clip-rule="evenodd"/><path fill="#fff" fill-opacity="0.3" fill-rule="evenodd" d="M5.247 3.12a2.52 2.52 0 0 0-1.856.772 2.552 2.552 0 0 0-.768 1.868c0 .73.256 1.352.768 1.867a2.52 2.52 0 0 0 1.856.773 2.52 2.52 0 0 0 1.855-.773A2.553 2.553 0 0 0 7.87 5.76c0-.73-.256-1.353-.768-1.868a2.52 2.52 0 0 0-1.855-.772Z" clip-rule="evenodd"/><path fill="#fff" fill-opacity="0.2" fill-rule="evenodd" d="M22.477 11.46a1.375 1.375 0 0 0-1.014-.42c-.397 0-.735.14-1.013.42-.278.28-.417.62-.417 1.02s.139.74.417 1.02c.278.28.616.42 1.013.42.398 0 .736-.14 1.014-.42.278-.28.417-.62.417-1.02s-.139-.74-.417-1.02ZM18.601 17.52c-.457 0-.85.165-1.177.495-.328.33-.492.725-.492 1.185 0 .46.164.855.492 1.185.328.33.72.495 1.177.495.457 0 .85-.165 1.178-.495.328-.33.492-.725.492-1.185 0-.46-.164-.855-.492-1.185a1.601 1.601 0 0 0-1.178-.495ZM11.924 20.16c-.527 0-.976.187-1.35.562a1.856 1.856 0 0 0-.558 1.358c0 .53.186.982.559 1.357.373.375.822.563 1.349.563s.976-.188 1.349-.563c.373-.375.559-.827.559-1.357s-.187-.983-.56-1.358a1.832 1.832 0 0 0-1.348-.563Z" clip-rule="evenodd"/><path fill="#fff" fill-opacity="0.3" fill-rule="evenodd" d="M11.924 0c-.795 0-1.47.28-2.027.84a2.787 2.787 0 0 0-.835 2.04c0 .8.278 1.48.835 2.04.556.56 1.232.84 2.027.84.795 0 1.47-.28 2.027-.84.556-.56.835-1.24.835-2.04S14.507 1.4 13.95.84A2.75 2.75 0 0 0 11.924 0Z" clip-rule="evenodd"/></svg>